<!-- Generated by IcoMoon.io -->
<svg version="1.1" xmlns="http://www.w3.org/2000/svg" width="1024" height="1024" viewBox="0 0 1024 1024">
<title></title>
<g id="icomoon-ignore">
</g>
<path d="M793.598 734.399c-9.6-9.6-19.2-9.6-28.8 0s-9.6 19.2 0 28.8l25.6 25.6c3.2 3.2 9.6 6.4 12.8 6.4s9.6-3.2 12.8-6.4c9.6-9.6 9.6-19.2 0-28.8l-22.4-25.6zM611.198 734.399c-9.6-9.6-19.2-9.6-28.8 0s-9.6 19.2 0 28.8l25.6 25.6c3.2 3.2 9.6 6.4 12.8 6.4s9.6-3.2 12.8-6.4c9.6-9.6 9.6-19.2 0-28.8l-22.4-25.6zM425.598 734.399c-9.6-9.6-19.2-9.6-28.8 0s-9.6 19.2 0 28.8l25.6 25.6c3.2 3.2 9.6 6.4 12.8 6.4s9.6-3.2 12.8-6.4c9.6-9.6 9.6-19.2 0-28.8l-22.4-25.6zM243.199 734.399c-9.6-9.6-19.2-9.6-28.8 0s-9.6 19.2 0 28.8l25.6 25.6c3.2 3.2 9.6 6.4 12.8 6.4s9.6-3.2 12.8-6.4c9.6-9.6 9.6-19.2 0-28.8l-22.4-25.6zM793.598 571.2c-9.6-9.6-19.2-9.6-28.8 0s-9.6 19.2 0 28.8l25.6 25.6c3.2 3.2 9.6 6.4 12.8 6.4s9.6-3.2 12.8-6.4c9.6-9.6 9.6-19.2 0-28.8l-22.4-25.6zM611.198 571.2c-9.6-9.6-19.2-9.6-28.8 0s-9.6 19.2 0 28.8l25.6 25.6c3.2 3.2 9.6 6.4 12.8 6.4s9.6-3.2 12.8-6.4c9.6-9.6 9.6-19.2 0-28.8l-22.4-25.6zM425.598 571.2c-9.6-9.6-19.2-9.6-28.8 0s-9.6 19.2 0 28.8l25.6 25.6c3.2 3.2 9.6 6.4 12.8 6.4s9.6-3.2 12.8-6.4c9.6-9.6 9.6-19.2 0-28.8l-22.4-25.6zM243.199 571.2c-9.6-9.6-19.2-9.6-28.8 0s-9.6 19.2 0 28.8l25.6 25.6c3.2 3.2 9.6 6.4 12.8 6.4s9.6-3.2 12.8-6.4c9.6-9.6 9.6-19.2 0-28.8l-22.4-25.6zM793.598 407.999c-9.6-9.6-19.2-9.6-28.8 0s-9.6 19.2 0 28.8l25.6 25.6c3.2 3.2 9.6 6.4 12.8 6.4s9.6-3.2 12.8-6.4c9.6-9.6 9.6-19.2 0-28.8l-22.4-25.6zM611.198 407.999c-9.6-9.6-19.2-9.6-28.8 0s-9.6 19.2 0 28.8l25.6 25.6c3.2 3.2 9.6 6.4 12.8 6.4s9.6-3.2 12.8-6.4c9.6-9.6 9.6-19.2 0-28.8l-22.4-25.6zM425.598 407.999c-9.6-9.6-19.2-9.6-28.8 0s-9.6 19.2 0 28.8l25.6 25.6c3.2 3.2 9.6 6.4 12.8 6.4s9.6-3.2 12.8-6.4c9.6-9.6 9.6-19.2 0-28.8l-22.4-25.6zM243.199 407.999c-9.6-9.6-19.2-9.6-28.8 0s-9.6 19.2 0 28.8l25.6 25.6c3.2 3.2 9.6 6.4 12.8 6.4s9.6-3.2 12.8-6.4c9.6-9.6 9.6-19.2 0-28.8l-22.4-25.6zM982.398 900.799c0 12.8-9.6 19.2-19.2 19.2h-902.4c-12.8 0-19.2-9.6-19.2-19.2v-675.199c0-12.8 9.6-19.2 19.2-19.2h204.8v60.8c0 12.8 9.6 19.2 22.4 19.2s19.2-9.6 19.2-19.2v-60.8h409.6v60.8c0 12.8 9.6 19.2 19.2 19.2 12.8 0 19.2-9.6 19.2-19.2v-60.8h204.8c12.8 0 19.2 9.6 19.2 19.2v675.199zM143.998 145.599h121.6v19.2h-144c0-12.8 9.6-19.2 22.4-19.2zM307.198 145.599h409.6v19.2h-409.6v-19.2zM758.398 145.599h144c12.8 0 19.2 9.6 19.2 19.2h-163.2v-19.2zM963.198 164.8c0-35.2-25.6-60.8-60.8-60.8h-144v-22.4c0-9.6-9.6-19.2-22.4-19.2s-19.2 9.6-19.2 19.2v19.2h-409.6v-19.2c0-9.6-9.6-19.2-19.2-19.2s-22.4 9.6-22.4 19.2v19.2h-121.6c-35.2 0-60.8 25.6-60.8 60.8h-22.4c-35.2 3.2-60.8 28.8-60.8 64v675.199c0 35.2 25.6 60.8 60.8 60.8h902.4c35.2 0 60.8-25.6 60.8-60.8v-675.199c0-35.2-25.6-60.8-60.8-60.8z"></path>
</svg>
