<!-- Generated by IcoMoon.io -->
<svg version="1.1" xmlns="http://www.w3.org/2000/svg" width="32" height="32" viewBox="0 0 32 32">
<title>edit-announce</title>
<path d="M18.854 24.576h-13.146c-0.279 0.043-0.49 0.282-0.49 0.57s0.211 0.526 0.487 0.569l0.003 0h13.146c0.026 0.004 0.055 0.006 0.086 0.006 0.318 0 0.576-0.258 0.576-0.576s-0.258-0.576-0.576-0.576c-0.030 0-0.060 0.002-0.089 0.007l0.003-0zM18.854 20.006h-13.146c-0.012-0.001-0.026-0.002-0.040-0.002-0.29 0-0.525 0.235-0.525 0.525 0 0.014 0.001 0.028 0.002 0.042l-0-0.002c-0.001 0.012-0.001 0.025-0.001 0.039 0 0.297 0.241 0.538 0.538 0.538 0.010 0 0.019-0 0.028-0.001l-0.001 0h13.146c0.008 0 0.017 0.001 0.026 0.001 0.304 0 0.55-0.246 0.55-0.55 0-0.009-0-0.018-0.001-0.027l0 0.001c0-0.008 0.001-0.018 0.001-0.027 0-0.297-0.241-0.538-0.538-0.538-0.014 0-0.027 0.001-0.041 0.002l0.002-0zM5.709 16.64h12.582c0.318 0 0.576-0.258 0.576-0.576s-0.258-0.576-0.576-0.576h-12.582c-0.318 0-0.576 0.258-0.576 0.576s0.258 0.576 0.576 0.576v0zM5.709 12.070h8.576c0.318 0 0.576-0.258 0.576-0.576s-0.258-0.576-0.576-0.576h-8.576c-0.016-0.002-0.034-0.002-0.052-0.002-0.289 0-0.524 0.228-0.537 0.513l-0 0.001c0 0 0 0 0 0 0 0.318 0.258 0.576 0.576 0.576 0.005 0 0.009-0 0.013-0h-0.001zM27.994 4.57v1.139c0.008-0 0.017-0 0.026-0 0.933 0 1.69 0.756 1.69 1.69 0 0.009-0 0.018-0 0.027l0-0.001v21.76c0 0.008 0 0.017 0 0.026 0 0.933-0.756 1.69-1.69 1.69-0.009 0-0.018-0-0.027-0l0.001 0h-23.987c-0.008 0-0.017 0-0.026 0-0.933 0-1.69-0.756-1.69-1.69 0-0.009 0-0.018 0-0.027l-0 0.001v-21.76c-0-0.008-0-0.017-0-0.026 0-0.933 0.756-1.69 1.69-1.69 0.009 0 0.018 0 0.027 0l-0.001-0h15.424v-1.139h-15.36c-0.027-0.001-0.058-0.001-0.090-0.001-1.569 0-2.842 1.272-2.842 2.842 0 0.005 0 0.010 0 0.015v-0.001 21.76c0.014 1.558 1.281 2.816 2.841 2.816 0.009 0 0.018-0 0.027-0h23.986c0.008 0 0.017 0 0.026 0 1.569 0 2.842-1.272 2.842-2.842 0-0.005 0-0.009-0-0.014v0.001-21.722c0-0.004 0-0.008 0-0.013 0-1.569-1.272-2.842-2.842-2.842-0.009 0-0.018 0-0.027 0h0.001zM22.874 2.854h1.702v16.346l-0.858 2.688-0.858-2.688zM22.874 1.139h1.702v0.576h-1.715zM21.76 19.482l1.434 4.518h1.126l1.28-4.454 0.064-0.179v-18.79c0-0.008 0.001-0.017 0.001-0.026 0-0.295-0.232-0.536-0.524-0.55l-0.001-0h-2.854c-0.293 0.014-0.525 0.255-0.525 0.55 0 0.009 0 0.018 0.001 0.027l-0-0.001v18.906h0.179z"></path>
</svg>
