<?xml version="1.0" encoding="utf-8"?>
<!-- Generator: Adobe Illustrator 21.1.0, SVG Export Plug-In . SVG Version: 6.00 Build 0)  -->
<svg version="1.1" id="Camada_1" xmlns="http://www.w3.org/2000/svg" xmlns:xlink="http://www.w3.org/1999/xlink" x="0px" y="0px"
	 viewBox="0 0 128 128" style="enable-background:new 0 0 128 128;" xml:space="preserve">
<style type="text/css">
	.st0{fill:#C22F2F;}
	.st1{fill:#FFFFFF;}
</style>
<g>
	<path class="st0" d="M106,23.3C94.5,11.8,79.4,6,64.3,6s-30.2,5.8-41.7,17.3c-23,23-23,60.4,0,83.4C34.1,118.2,49.2,124,64.3,124
		s30.2-5.8,41.7-17.3C129,83.7,129,46.3,106,23.3z"/>
	<polygon class="st1" points="81.5,33 64.3,50.2 47,33 32.3,47.8 49.5,65 32.3,82.2 47,97 64.3,79.8 81.5,97 96.3,82.2 79.1,65 
		96.3,47.8 	"/>
</g>
</svg>
